<mxfile host="Electron" modified="2024-05-10T14:17:31.722Z" agent="Mozilla/5.0 (Windows NT 10.0; Win64; x64) AppleWebKit/537.36 (KHTML, like Gecko) draw.io/24.2.5 Chrome/120.0.6099.109 Electron/28.1.0 Safari/537.36" etag="5wIutZxni9ti-iV5ywh4" version="24.2.5" type="device">
  <diagram name="Seite-1" id="HLHpH_ou4ANuys2L_7Qh">
    <mxGraphModel dx="988" dy="592" grid="1" gridSize="10" guides="1" tooltips="1" connect="1" arrows="1" fold="1" page="1" pageScale="1" pageWidth="827" pageHeight="1169" math="0" shadow="0">
      <root>
        <mxCell id="0" />
        <mxCell id="1" parent="0" />
        <mxCell id="vn1dnEoQ3g9eWZXEqQMI-1" value="" style="endArrow=none;html=1;rounded=0;" edge="1" parent="1">
          <mxGeometry width="50" height="50" relative="1" as="geometry">
            <mxPoint x="280" y="650" as="sourcePoint" />
            <mxPoint x="280" y="640" as="targetPoint" />
          </mxGeometry>
        </mxCell>
        <mxCell id="vn1dnEoQ3g9eWZXEqQMI-2" value="" style="endArrow=none;html=1;rounded=0;fillColor=#f8cecc;strokeColor=#b85450;strokeWidth=2;" edge="1" parent="1">
          <mxGeometry width="50" height="50" relative="1" as="geometry">
            <mxPoint x="270" y="390" as="sourcePoint" />
            <mxPoint x="460" y="580" as="targetPoint" />
          </mxGeometry>
        </mxCell>
        <mxCell id="vn1dnEoQ3g9eWZXEqQMI-3" value="" style="endArrow=classic;html=1;rounded=0;" edge="1" parent="1">
          <mxGeometry width="50" height="50" relative="1" as="geometry">
            <mxPoint x="200" y="640" as="sourcePoint" />
            <mxPoint x="590" y="640" as="targetPoint" />
          </mxGeometry>
        </mxCell>
        <mxCell id="vn1dnEoQ3g9eWZXEqQMI-4" value="" style="endArrow=classic;html=1;rounded=0;" edge="1" parent="1">
          <mxGeometry width="50" height="50" relative="1" as="geometry">
            <mxPoint x="200" y="650" as="sourcePoint" />
            <mxPoint x="200" y="360" as="targetPoint" />
          </mxGeometry>
        </mxCell>
        <mxCell id="vn1dnEoQ3g9eWZXEqQMI-6" value="" style="endArrow=none;html=1;rounded=0;" edge="1" parent="1">
          <mxGeometry width="50" height="50" relative="1" as="geometry">
            <mxPoint x="240" y="650" as="sourcePoint" />
            <mxPoint x="240" y="640" as="targetPoint" />
          </mxGeometry>
        </mxCell>
        <mxCell id="vn1dnEoQ3g9eWZXEqQMI-7" value="" style="endArrow=none;html=1;rounded=0;" edge="1" parent="1">
          <mxGeometry width="50" height="50" relative="1" as="geometry">
            <mxPoint x="320" y="650" as="sourcePoint" />
            <mxPoint x="320" y="640" as="targetPoint" />
          </mxGeometry>
        </mxCell>
        <mxCell id="vn1dnEoQ3g9eWZXEqQMI-8" value="" style="endArrow=none;html=1;rounded=0;" edge="1" parent="1">
          <mxGeometry width="50" height="50" relative="1" as="geometry">
            <mxPoint x="360" y="650" as="sourcePoint" />
            <mxPoint x="360" y="640" as="targetPoint" />
          </mxGeometry>
        </mxCell>
        <mxCell id="vn1dnEoQ3g9eWZXEqQMI-9" value="10&lt;sup&gt;4&lt;/sup&gt;" style="text;html=1;align=center;verticalAlign=middle;whiteSpace=wrap;rounded=0;" vertex="1" parent="1">
          <mxGeometry x="330" y="644" width="60" height="30" as="geometry" />
        </mxCell>
        <mxCell id="vn1dnEoQ3g9eWZXEqQMI-10" value="10&lt;sup&gt;3&lt;/sup&gt;" style="text;html=1;align=center;verticalAlign=middle;whiteSpace=wrap;rounded=0;" vertex="1" parent="1">
          <mxGeometry x="290" y="644" width="60" height="30" as="geometry" />
        </mxCell>
        <mxCell id="vn1dnEoQ3g9eWZXEqQMI-11" value="10&lt;sup&gt;2&lt;/sup&gt;" style="text;html=1;align=center;verticalAlign=middle;whiteSpace=wrap;rounded=0;" vertex="1" parent="1">
          <mxGeometry x="250" y="644" width="60" height="30" as="geometry" />
        </mxCell>
        <mxCell id="vn1dnEoQ3g9eWZXEqQMI-12" value="10&lt;sup&gt;1&lt;/sup&gt;" style="text;html=1;align=center;verticalAlign=middle;whiteSpace=wrap;rounded=0;" vertex="1" parent="1">
          <mxGeometry x="210" y="644" width="60" height="30" as="geometry" />
        </mxCell>
        <mxCell id="vn1dnEoQ3g9eWZXEqQMI-13" value="10&lt;sup&gt;0&lt;/sup&gt;" style="text;html=1;align=center;verticalAlign=middle;whiteSpace=wrap;rounded=0;" vertex="1" parent="1">
          <mxGeometry x="170" y="644" width="60" height="30" as="geometry" />
        </mxCell>
        <mxCell id="vn1dnEoQ3g9eWZXEqQMI-14" value="Lastwechsel (log)" style="text;html=1;align=center;verticalAlign=middle;whiteSpace=wrap;rounded=0;" vertex="1" parent="1">
          <mxGeometry x="510" y="641" width="60" height="30" as="geometry" />
        </mxCell>
        <mxCell id="vn1dnEoQ3g9eWZXEqQMI-15" value="" style="endArrow=none;html=1;rounded=0;" edge="1" parent="1">
          <mxGeometry width="50" height="50" relative="1" as="geometry">
            <mxPoint x="400" y="650" as="sourcePoint" />
            <mxPoint x="400" y="640" as="targetPoint" />
          </mxGeometry>
        </mxCell>
        <mxCell id="vn1dnEoQ3g9eWZXEqQMI-16" value="" style="endArrow=none;html=1;rounded=0;" edge="1" parent="1">
          <mxGeometry width="50" height="50" relative="1" as="geometry">
            <mxPoint x="440" y="650" as="sourcePoint" />
            <mxPoint x="440" y="640" as="targetPoint" />
          </mxGeometry>
        </mxCell>
        <mxCell id="vn1dnEoQ3g9eWZXEqQMI-17" value="" style="endArrow=none;html=1;rounded=0;" edge="1" parent="1">
          <mxGeometry width="50" height="50" relative="1" as="geometry">
            <mxPoint x="480" y="650" as="sourcePoint" />
            <mxPoint x="480" y="640" as="targetPoint" />
          </mxGeometry>
        </mxCell>
        <mxCell id="vn1dnEoQ3g9eWZXEqQMI-18" value="10&lt;sup&gt;5&lt;/sup&gt;" style="text;html=1;align=center;verticalAlign=middle;whiteSpace=wrap;rounded=0;" vertex="1" parent="1">
          <mxGeometry x="370" y="644" width="60" height="30" as="geometry" />
        </mxCell>
        <mxCell id="vn1dnEoQ3g9eWZXEqQMI-19" value="10&lt;sup&gt;6&lt;/sup&gt;" style="text;html=1;align=center;verticalAlign=middle;whiteSpace=wrap;rounded=0;" vertex="1" parent="1">
          <mxGeometry x="410" y="644" width="60" height="30" as="geometry" />
        </mxCell>
        <mxCell id="vn1dnEoQ3g9eWZXEqQMI-20" value="10&lt;sup&gt;7&lt;/sup&gt;" style="text;html=1;align=center;verticalAlign=middle;whiteSpace=wrap;rounded=0;" vertex="1" parent="1">
          <mxGeometry x="450" y="644" width="60" height="30" as="geometry" />
        </mxCell>
        <mxCell id="vn1dnEoQ3g9eWZXEqQMI-24" value="Spannungsamplitude [MPA]" style="text;html=1;align=center;verticalAlign=middle;whiteSpace=wrap;rounded=0;rotation=0;" vertex="1" parent="1">
          <mxGeometry x="135" y="326" width="130" height="30" as="geometry" />
        </mxCell>
        <mxCell id="vn1dnEoQ3g9eWZXEqQMI-25" value="" style="endArrow=none;dashed=1;html=1;dashPattern=1 3;strokeWidth=1;rounded=0;" edge="1" parent="1">
          <mxGeometry width="50" height="50" relative="1" as="geometry">
            <mxPoint x="200" y="560" as="sourcePoint" />
            <mxPoint x="440" y="560" as="targetPoint" />
          </mxGeometry>
        </mxCell>
        <mxCell id="vn1dnEoQ3g9eWZXEqQMI-26" value="" style="endArrow=none;dashed=1;html=1;dashPattern=1 3;strokeWidth=1;rounded=0;" edge="1" parent="1">
          <mxGeometry width="50" height="50" relative="1" as="geometry">
            <mxPoint x="439.76" y="563" as="sourcePoint" />
            <mxPoint x="439.76" y="643" as="targetPoint" />
          </mxGeometry>
        </mxCell>
        <mxCell id="vn1dnEoQ3g9eWZXEqQMI-27" value="" style="endArrow=none;dashed=1;html=1;dashPattern=1 3;strokeWidth=1;rounded=0;" edge="1" parent="1">
          <mxGeometry width="50" height="50" relative="1" as="geometry">
            <mxPoint x="200" y="480" as="sourcePoint" />
            <mxPoint x="360" y="480" as="targetPoint" />
          </mxGeometry>
        </mxCell>
        <mxCell id="vn1dnEoQ3g9eWZXEqQMI-28" value="" style="endArrow=none;dashed=1;html=1;dashPattern=1 3;strokeWidth=1;rounded=0;" edge="1" parent="1">
          <mxGeometry width="50" height="50" relative="1" as="geometry">
            <mxPoint x="200" y="400" as="sourcePoint" />
            <mxPoint x="280" y="400" as="targetPoint" />
          </mxGeometry>
        </mxCell>
        <mxCell id="vn1dnEoQ3g9eWZXEqQMI-29" value="0" style="text;html=1;align=right;verticalAlign=middle;whiteSpace=wrap;rounded=0;" vertex="1" parent="1">
          <mxGeometry x="148" y="625" width="40" height="30" as="geometry" />
        </mxCell>
        <mxCell id="vn1dnEoQ3g9eWZXEqQMI-30" value="" style="endArrow=none;html=1;rounded=0;" edge="1" parent="1">
          <mxGeometry width="50" height="50" relative="1" as="geometry">
            <mxPoint x="190" y="560" as="sourcePoint" />
            <mxPoint x="200" y="560" as="targetPoint" />
          </mxGeometry>
        </mxCell>
        <mxCell id="vn1dnEoQ3g9eWZXEqQMI-33" value="" style="endArrow=none;html=1;rounded=0;" edge="1" parent="1">
          <mxGeometry width="50" height="50" relative="1" as="geometry">
            <mxPoint x="190" y="480" as="sourcePoint" />
            <mxPoint x="200" y="480" as="targetPoint" />
          </mxGeometry>
        </mxCell>
        <mxCell id="vn1dnEoQ3g9eWZXEqQMI-34" value="" style="endArrow=none;html=1;rounded=0;" edge="1" parent="1">
          <mxGeometry width="50" height="50" relative="1" as="geometry">
            <mxPoint x="190" y="400" as="sourcePoint" />
            <mxPoint x="200" y="400" as="targetPoint" />
          </mxGeometry>
        </mxCell>
        <mxCell id="vn1dnEoQ3g9eWZXEqQMI-35" value="200" style="text;html=1;align=right;verticalAlign=middle;whiteSpace=wrap;rounded=0;" vertex="1" parent="1">
          <mxGeometry x="148" y="465" width="40" height="30" as="geometry" />
        </mxCell>
        <mxCell id="vn1dnEoQ3g9eWZXEqQMI-36" value="300" style="text;html=1;align=right;verticalAlign=middle;whiteSpace=wrap;rounded=0;" vertex="1" parent="1">
          <mxGeometry x="148" y="385" width="40" height="30" as="geometry" />
        </mxCell>
        <mxCell id="vn1dnEoQ3g9eWZXEqQMI-37" value="" style="endArrow=none;dashed=1;html=1;dashPattern=1 3;strokeWidth=1;rounded=0;" edge="1" parent="1">
          <mxGeometry width="50" height="50" relative="1" as="geometry">
            <mxPoint x="359.76" y="480" as="sourcePoint" />
            <mxPoint x="359.76" y="640" as="targetPoint" />
          </mxGeometry>
        </mxCell>
        <mxCell id="vn1dnEoQ3g9eWZXEqQMI-38" value="" style="endArrow=none;dashed=1;html=1;dashPattern=1 3;strokeWidth=1;rounded=0;" edge="1" parent="1">
          <mxGeometry width="50" height="50" relative="1" as="geometry">
            <mxPoint x="279.76" y="400" as="sourcePoint" />
            <mxPoint x="279.76" y="640" as="targetPoint" />
          </mxGeometry>
        </mxCell>
        <mxCell id="vn1dnEoQ3g9eWZXEqQMI-39" value="Bauteil-Wöhlerlinie" style="text;html=1;align=center;verticalAlign=middle;whiteSpace=wrap;rounded=0;fillColor=none;strokeColor=none;fontColor=#EA6B66;rotation=45;" vertex="1" parent="1">
          <mxGeometry x="310" y="465" width="130" height="30" as="geometry" />
        </mxCell>
        <mxCell id="vn1dnEoQ3g9eWZXEqQMI-40" value="100" style="text;html=1;align=right;verticalAlign=middle;whiteSpace=wrap;rounded=0;" vertex="1" parent="1">
          <mxGeometry x="148" y="545" width="40" height="30" as="geometry" />
        </mxCell>
        <mxCell id="vn1dnEoQ3g9eWZXEqQMI-41" value="" style="endArrow=none;html=1;rounded=0;" edge="1" parent="1">
          <mxGeometry width="50" height="50" relative="1" as="geometry">
            <mxPoint x="190" y="640" as="sourcePoint" />
            <mxPoint x="200" y="640" as="targetPoint" />
          </mxGeometry>
        </mxCell>
        <mxCell id="vn1dnEoQ3g9eWZXEqQMI-42" value="" style="rounded=0;whiteSpace=wrap;html=1;strokeColor=#b85450;opacity=50;fillColor=#f8cecc;" vertex="1" parent="1">
          <mxGeometry x="200" y="400" width="40" height="240" as="geometry" />
        </mxCell>
        <mxCell id="vn1dnEoQ3g9eWZXEqQMI-44" value="" style="rounded=0;whiteSpace=wrap;html=1;strokeColor=#82b366;opacity=50;fillColor=#d5e8d4;" vertex="1" parent="1">
          <mxGeometry x="200" y="560" width="227" height="80" as="geometry" />
        </mxCell>
        <mxCell id="vn1dnEoQ3g9eWZXEqQMI-45" value="" style="rounded=0;whiteSpace=wrap;html=1;strokeColor=#d6b656;opacity=50;fillColor=#fff2cc;" vertex="1" parent="1">
          <mxGeometry x="200" y="480" width="142" height="160" as="geometry" />
        </mxCell>
        <mxCell id="vn1dnEoQ3g9eWZXEqQMI-46" value="10x" style="text;html=1;align=center;verticalAlign=middle;whiteSpace=wrap;rounded=0;fillColor=none;strokeColor=none;fontColor=#FF9999;" vertex="1" parent="1">
          <mxGeometry x="190" y="426" width="60" height="30" as="geometry" />
        </mxCell>
        <mxCell id="vn1dnEoQ3g9eWZXEqQMI-47" value="4000x" style="text;html=1;align=center;verticalAlign=middle;whiteSpace=wrap;rounded=0;fontColor=#FFE599;" vertex="1" parent="1">
          <mxGeometry x="282" y="505" width="60" height="30" as="geometry" />
        </mxCell>
        <mxCell id="vn1dnEoQ3g9eWZXEqQMI-48" value="500000x" style="text;html=1;align=center;verticalAlign=middle;whiteSpace=wrap;rounded=0;fontColor=#B9E0A5;" vertex="1" parent="1">
          <mxGeometry x="367" y="585" width="60" height="30" as="geometry" />
        </mxCell>
      </root>
    </mxGraphModel>
  </diagram>
</mxfile>
